<?xml version="1.0" encoding="UTF-8" standalone="no"?>
<svg
   width="32"
   height="32"
   viewBox="0 0 32 32"
   fill="none"
   version="1.1"
   id="svg1584"
   sodipodi:docname="Hosting Landing Page.svg"
   inkscape:export-filename="Hosting Landing Page.png"
   inkscape:export-xdpi="10.041841"
   inkscape:export-ydpi="10.041841"
   xmlns:inkscape="http://www.inkscape.org/namespaces/inkscape"
   xmlns:sodipodi="http://sodipodi.sourceforge.net/DTD/sodipodi-0.dtd"
   xmlns="http://www.w3.org/2000/svg"
   xmlns:svg="http://www.w3.org/2000/svg">
  <sodipodi:namedview
     id="namedview1586"
     pagecolor="#ffffff"
     bordercolor="#000000"
     borderopacity="0.25"
     inkscape:showpageshadow="2"
     inkscape:pageopacity="0.0"
     inkscape:pagecheckerboard="0"
     inkscape:deskcolor="#d1d1d1"
     showgrid="false"
     inkscape:zoom="0.54916318"
     inkscape:cx="651.90095"
     inkscape:cy="770.26286"
     inkscape:window-width="1366"
     inkscape:window-height="705"
     inkscape:window-x="-8"
     inkscape:window-y="-8"
     inkscape:window-maximized="1"
     inkscape:current-layer="svg1584" />
  <g
     id="g10090"
     transform="translate(-271,-843)">
    <circle
       cx="287"
       cy="859"
       r="16"
       fill="#fca311"
       id="circle1493" />
    <circle
       cx="287"
       cy="859"
       r="16"
       fill="url(#paint15_linear_0_1)"
       id="circle1495"
       style="fill:url(#paint15_linear_0_1)" />
    <path
       d="m 279.816,863 v -8.4 h 5.424 v 1.236 h -3.888 v 2.352 h 3.144 v 1.212 h -3.144 v 3.6 z m 6.609,0 v -8.4 h 3.372 c 0.872,0 1.536,0.204 1.992,0.612 0.464,0.4 0.696,0.916 0.696,1.548 0,0.528 -0.144,0.952 -0.432,1.272 -0.28,0.312 -0.624,0.524 -1.032,0.636 0.48,0.096 0.876,0.336 1.188,0.72 0.312,0.376 0.468,0.816 0.468,1.32 0,0.664 -0.24,1.212 -0.72,1.644 -0.48,0.432 -1.16,0.648 -2.04,0.648 z m 1.536,-4.872 h 1.608 c 0.432,0 0.764,-0.1 0.996,-0.3 0.232,-0.2 0.348,-0.484 0.348,-0.852 0,-0.352 -0.116,-0.628 -0.348,-0.828 -0.224,-0.208 -0.564,-0.312 -1.02,-0.312 h -1.584 z m 0,3.624 h 1.716 c 0.456,0 0.808,-0.104 1.056,-0.312 0.256,-0.216 0.384,-0.516 0.384,-0.9 0,-0.392 -0.132,-0.7 -0.396,-0.924 -0.264,-0.224 -0.62,-0.336 -1.068,-0.336 h -1.692 z"
       fill="#ffffff"
       id="path1497" />
  </g>
  <defs
     id="defs1582">
    <linearGradient
       id="paint15_linear_0_1"
       x1="271"
       y1="842.85199"
       x2="290.49701"
       y2="881.20697"
       gradientUnits="userSpaceOnUse">
      <stop
         stop-color="#09C6F9"
         id="stop1574" />
      <stop
         offset="1"
         stop-color="#045DE9"
         id="stop1576" />
    </linearGradient>
  </defs>
</svg>
