<?xml version="1.0" encoding="UTF-8" standalone="no"?>
<svg
   width="60"
   height="45"
   viewBox="0 0 60 45"
   fill="none"
   version="1.1"
   id="svg1584"
   xmlns="http://www.w3.org/2000/svg"
   xmlns:svg="http://www.w3.org/2000/svg">
  <path
     fill-rule="evenodd"
     clip-rule="evenodd"
     d="M 19.147,0 C 24.154,0 28.448,2.854 30.604,6.975 33.25,5.793 36.197,5.134 39.302,5.134 50.701,5.134 60,14.027 60,25.067 60,36.107 50.7,45 39.302,45 H 15.116 C 6.8,45 0,38.51 0,30.433 0,25.181 2.881,20.597 7.175,18.037 6.547,16.5 6.202,14.818 6.202,13.059 6.202,5.92 11.924,0 19.147,0 Z m -8.759,13.059 c 0,-5.026 3.995,-8.968 8.759,-8.968 3.393,0 6.387,1.989 7.838,4.956 -2.62,1.871 -4.767,4.325 -6.232,7.169 -0.101,0.194 -0.198,0.39 -0.291,0.588 -0.187,-0.068 -0.375,-0.132 -0.565,-0.193 -1.505,-0.483 -3.113,-0.744 -4.781,-0.744 -1.417,0 -2.792,0.188 -4.097,0.542 -0.407,-1.032 -0.631,-2.162 -0.631,-3.35 z"
     fill="url(#paint11_linear_0_1)"
     id="path1473"
     style="fill:url(#paint11_linear_0_1)" />
  <defs
     id="defs1582">
    <linearGradient
       id="paint11_linear_0_1"
       x1="512"
       y1="770.79199"
       x2="534.59302"
       y2="830.05298"
       gradientUnits="userSpaceOnUse"
       gradientTransform="translate(-512,-771)">
      <stop
         stop-color="#09C6F9"
         id="stop1554" />
      <stop
         offset="1"
         stop-color="#045DE9"
         id="stop1556" />
    </linearGradient>
  </defs>
</svg>
