<?xml version="1.0" encoding="UTF-8" standalone="no"?>
<svg
   width="32"
   height="32"
   viewBox="0 0 32 32"
   fill="none"
   version="1.1"
   id="svg1584"
   sodipodi:docname="Hosting Landing Page.svg"
   inkscape:export-filename="Hosting Landing Page.png"
   inkscape:export-xdpi="10.041841"
   inkscape:export-ydpi="10.041841"
   xmlns:inkscape="http://www.inkscape.org/namespaces/inkscape"
   xmlns:sodipodi="http://sodipodi.sourceforge.net/DTD/sodipodi-0.dtd"
   xmlns="http://www.w3.org/2000/svg"
   xmlns:svg="http://www.w3.org/2000/svg">
  <sodipodi:namedview
     id="namedview1586"
     pagecolor="#ffffff"
     bordercolor="#000000"
     borderopacity="0.25"
     inkscape:showpageshadow="2"
     inkscape:pageopacity="0.0"
     inkscape:pagecheckerboard="0"
     inkscape:deskcolor="#d1d1d1"
     showgrid="false"
     inkscape:zoom="0.54916318"
     inkscape:cx="651.90095"
     inkscape:cy="770.26286"
     inkscape:window-width="1366"
     inkscape:window-height="705"
     inkscape:window-x="-8"
     inkscape:window-y="-8"
     inkscape:window-maximized="1"
     inkscape:current-layer="svg1584" />
  <g
     id="g10923"
     transform="translate(-311,-843)">
    <circle
       cx="327"
       cy="859"
       r="16"
       fill="#fca311"
       id="circle1487" />
    <circle
       cx="327"
       cy="859"
       r="16"
       fill="url(#paint14_linear_0_1)"
       id="circle1489"
       style="fill:url(#paint14_linear_0_1)" />
    <path
       d="m 320.816,863 v -8.4 h 1.536 v 8.4 z m 6.836,0.144 c -0.792,0 -1.484,-0.18 -2.076,-0.54 -0.592,-0.36 -1.052,-0.86 -1.38,-1.5 -0.328,-0.648 -0.492,-1.4 -0.492,-2.256 0,-0.864 0.168,-1.624 0.504,-2.28 0.344,-0.664 0.828,-1.18 1.452,-1.548 0.632,-0.376 1.38,-0.564 2.244,-0.564 0.984,0 1.8,0.236 2.448,0.708 0.648,0.472 1.068,1.124 1.26,1.956 h -1.716 c -0.128,-0.392 -0.36,-0.696 -0.696,-0.912 -0.336,-0.224 -0.768,-0.336 -1.296,-0.336 -0.84,0 -1.488,0.268 -1.944,0.804 -0.456,0.528 -0.684,1.256 -0.684,2.184 0,0.928 0.224,1.648 0.672,2.16 0.456,0.504 1.072,0.756 1.848,0.756 0.76,0 1.332,-0.204 1.716,-0.612 0.392,-0.416 0.628,-0.96 0.708,-1.632 h -2.124 v -1.152 h 3.672 V 863 h -1.416 l -0.12,-1.104 c -0.272,0.4 -0.612,0.708 -1.02,0.924 -0.408,0.216 -0.928,0.324 -1.56,0.324 z"
       fill="#ffffff"
       id="path1491" />
  </g>
  <defs
     id="defs1582">
    <linearGradient
       id="paint14_linear_0_1"
       x1="311"
       y1="842.85199"
       x2="330.49701"
       y2="881.20697"
       gradientUnits="userSpaceOnUse">
      <stop
         stop-color="#09C6F9"
         id="stop1569" />
      <stop
         offset="1"
         stop-color="#045DE9"
         id="stop1571" />
    </linearGradient>
  </defs>
</svg>
